<?xml version="1.0" encoding="utf-8"?><!-- Uploaded to: SVG Repo, www.svgrepo.com, Generator: SVG Repo Mixer Tools -->
<svg viewBox="0 0 24 24" id="music-1" data-name="Flat Color" xmlns="http://www.w3.org/2000/svg" class="icon flat-color" role="img" aria-label="music icon">
	<path id="primary" d="M17,5.15a23.88,23.88,0,0,1-3.27-2.84,1,1,0,0,0-1.09-.24A1,1,0,0,0,12,3V13.76a4.5,4.5,0,1,0,2,3.74V5.34a15.88,15.88,0,0,0,1.9,1.49c.83.54,1.57,1.41.74,3.85A1,1,0,0,0,17.27,12a1,1,0,0,0,1.27-.63C19.49,8.5,19,6.43,17,5.15Z" fill="#ffffff" />
</svg>
